HIERARCHY
ROOT Hips
{
    OFFSET   0.000000   0.000000   0.000000
    CHANNELS 6 Xposition Yposition Zposition Zrotation Xrotation Yrotation
    JOINT Chest
    {
        OFFSET   0.000000   8.007240   0.000000
        CHANNELS 3 Zrotation Xrotation Yrotation
        JOINT Chest2
        {
            OFFSET   0.000000  22.077100   0.000000
            CHANNELS 3 Zrotation Xrotation Yrotation
            JOINT Neck
            {
                OFFSET   0.000000  23.254800   0.000000
                CHANNELS 3 Zrotation Xrotation Yrotation
                JOINT Head
                {
                    OFFSET   0.000000  14.370000   1.956600
                    CHANNELS 3 Zrotation Xrotation Yrotation
                    End Site
                    {
                        OFFSET   0.000000  19.566000   0.000000
                    }
                }
            }
            JOINT LeftCollar
            {
                OFFSET   3.911900  19.017000  -0.467064
                CHANNELS 3 Zrotation Xrotation Yrotation
                JOINT LeftShoulder
                {
                    OFFSET  10.383700   0.000000   0.000000
                    CHANNELS 3 Zrotation Xrotation Yrotation
                    JOINT LeftElbow
                    {
                        OFFSET  26.662100   0.001476   0.000517
                        CHANNELS 3 Zrotation Xrotation Yrotation
                        JOINT LeftWrist
                        {
                            OFFSET  28.869000  -0.000025  -0.000106
                            CHANNELS 3 Zrotation Xrotation Yrotation
                            JOINT LeftFinger0
                            {
                                OFFSET   2.044660  -2.323460   3.252850
                                CHANNELS 3 Zrotation Xrotation Yrotation
                                JOINT LeftFinger01
                                {
                                    OFFSET   3.088130   0.000000   0.000000
                                    CHANNELS 3 Zrotation Xrotation Yrotation
                                    JOINT LeftFinger02
                                    {
                                        OFFSET   2.639460   0.000000   0.000000
                                        CHANNELS 3 Zrotation Xrotation Yrotation
                                        End Site
                                        {
                                            OFFSET   2.582190   0.000000   0.000000
                                        }
                                    }
                                }
                            }
                            JOINT LeftFinger1
                            {
                                OFFSET   8.364480   0.000000   3.252850
                                CHANNELS 3 Zrotation Xrotation Yrotation
                                JOINT LeftFinger11
                                {
                                    OFFSET   4.646930   0.000000   0.000000
                                    CHANNELS 3 Zrotation Xrotation Yrotation
                                    JOINT LeftFinger12
                                    {
                                        OFFSET   2.323460   0.000000   0.000000
                                        CHANNELS 3 Zrotation Xrotation Yrotation
                                        End Site
                                        {
                                            OFFSET   2.273050   0.000000   0.000000
                                        }
                                    }
                                }
                            }
                            JOINT LeftFinger2
                            {
                                OFFSET   8.364490   0.000015   1.078090
                                CHANNELS 3 Zrotation Xrotation Yrotation
                                JOINT LeftFinger21
                                {
                                    OFFSET   5.111620   0.000000   0.000000
                                    CHANNELS 3 Zrotation Xrotation Yrotation
                                    JOINT LeftFinger22
                                    {
                                        OFFSET   2.788160   0.000016   0.000000
                                        CHANNELS 3 Zrotation Xrotation Yrotation
                                        End Site
                                        {
                                            OFFSET   2.727660   0.000000   0.000000
                                        }
                                    }
                                }
                            }
                            JOINT LeftFinger3
                            {
                                OFFSET   7.899780   0.000017  -1.078090
                                CHANNELS 3 Zrotation Xrotation Yrotation
                                JOINT LeftFinger31
                                {
                                    OFFSET   4.646930   0.000000   0.000000
                                    CHANNELS 3 Zrotation Xrotation Yrotation
                                    JOINT LeftFinger32
                                    {
                                        OFFSET   2.323470   0.000000   0.000000
                                        CHANNELS 3 Zrotation Xrotation Yrotation
                                        End Site
                                        {
                                            OFFSET   2.273050   0.000000   0.000000
                                        }
                                    }
                                }
                            }
                            JOINT LeftFinger4
                            {
                                OFFSET   7.435090   0.000000  -3.252850
                                CHANNELS 3 Zrotation Xrotation Yrotation
                                JOINT LeftFinger41
                                {
                                    OFFSET   3.717550   0.000000   0.000000
                                    CHANNELS 3 Zrotation Xrotation Yrotation
                                    JOINT LeftFinger42
                                    {
                                        OFFSET   1.858770   0.000000   0.000000
                                        CHANNELS 3 Zrotation Xrotation Yrotation
                                        End Site
                                        {
                                            OFFSET   1.818440   0.000000   0.000000
                                        }
                                    }
                                }
                            }
                        }
                    }
                }
            }
            JOINT RightCollar
            {
                OFFSET  -3.911900  19.017000  -0.467063
                CHANNELS 3 Zrotation Xrotation Yrotation
                JOINT RightShoulder
                {
                    OFFSET -10.383700   0.000019   0.000000
                    CHANNELS 3 Zrotation Xrotation Yrotation
                    JOINT RightElbow
                    {
                        OFFSET -26.662100   0.001175   0.000102
                        CHANNELS 3 Zrotation Xrotation Yrotation
                        JOINT RightWrist
                        {
                            OFFSET -28.869000   0.000016  -0.000079
                            CHANNELS 3 Zrotation Xrotation Yrotation
                            JOINT RightFinger0
                            {
                                OFFSET  -2.044660  -2.323490   3.252850
                                CHANNELS 3 Zrotation Xrotation Yrotation
                                JOINT RightFinger01
                                {
                                    OFFSET  -3.088140   0.000000   0.000000
                                    CHANNELS 3 Zrotation Xrotation Yrotation
                                    JOINT RightFinger02
                                    {
                                        OFFSET  -2.639460   0.000000   0.000000
                                        CHANNELS 3 Zrotation Xrotation Yrotation
                                        End Site
                                        {
                                            OFFSET  -2.582190   0.000000   0.000000
                                        }
                                    }
                                }
                            }
                            JOINT RightFinger1
                            {
                                OFFSET  -8.364480   0.000000   3.252850
                                CHANNELS 3 Zrotation Xrotation Yrotation
                                JOINT RightFinger11
                                {
                                    OFFSET  -4.646930   0.000000   0.000000
                                    CHANNELS 3 Zrotation Xrotation Yrotation
                                    JOINT RightFinger12
                                    {
                                        OFFSET  -2.323470   0.000000   0.000000
                                        CHANNELS 3 Zrotation Xrotation Yrotation
                                        End Site
                                        {
                                            OFFSET  -2.273050   0.000000   0.000000
                                        }
                                    }
                                }
                            }
                            JOINT RightFinger2
                            {
                                OFFSET  -8.364480   0.000000   1.078090
                                CHANNELS 3 Zrotation Xrotation Yrotation
                                JOINT RightFinger21
                                {
                                    OFFSET  -5.111620   0.000000   0.000000
                                    CHANNELS 3 Zrotation Xrotation Yrotation
                                    JOINT RightFinger22
                                    {
                                        OFFSET  -2.788160   0.000000   0.000000
                                        CHANNELS 3 Zrotation Xrotation Yrotation
                                        End Site
                                        {
                                            OFFSET  -2.727660   0.000000   0.000000
                                        }
                                    }
                                }
                            }
                            JOINT RightFinger3
                            {
                                OFFSET  -7.899780   0.000000  -1.078090
                                CHANNELS 3 Zrotation Xrotation Yrotation
                                JOINT RightFinger31
                                {
                                    OFFSET  -4.646930   0.000000   0.000000
                                    CHANNELS 3 Zrotation Xrotation Yrotation
                                    JOINT RightFinger32
                                    {
                                        OFFSET  -2.323470   0.000000   0.000000
                                        CHANNELS 3 Zrotation Xrotation Yrotation
                                        End Site
                                        {
                                            OFFSET  -2.273050   0.000000   0.000000
                                        }
                                    }
                                }
                            }
                            JOINT RightFinger4
                            {
                                OFFSET  -7.435090   0.000000  -3.252850
                                CHANNELS 3 Zrotation Xrotation Yrotation
                                JOINT RightFinger41
                                {
                                    OFFSET  -3.717550   0.000000   0.000000
                                    CHANNELS 3 Zrotation Xrotation Yrotation
                                    JOINT RightFinger42
                                    {
                                        OFFSET  -1.858770   0.000000   0.000000
                                        CHANNELS 3 Zrotation Xrotation Yrotation
                                        End Site
                                        {
                                            OFFSET  -1.818440   0.000000   0.000000
                                        }
                                    }
                                }
                            }
                        }
                    }
                }
            }
        }
    }
    JOINT LeftHip
    {
        OFFSET   9.783040   0.000000   0.000000
        CHANNELS 3 Zrotation Xrotation Yrotation
        JOINT LeftKnee
        {
            OFFSET   0.000032 -41.789100  -0.002222
            CHANNELS 3 Zrotation Xrotation Yrotation
            JOINT LeftAnkle
            {
                OFFSET   0.000087 -41.133200  -0.000135
                CHANNELS 3 Zrotation Xrotation Yrotation
                JOINT LeftToe
                {
                    OFFSET   0.000000  -6.358960  14.674500
                    CHANNELS 3 Zrotation Xrotation Yrotation
                    End Site
                    {
                        OFFSET   0.000000   0.000000   3.913200
                    }
                }
            }
        }
    }
    JOINT RightHip
    {
        OFFSET  -9.783040   0.000000   0.000000
        CHANNELS 3 Zrotation Xrotation Yrotation
        JOINT RightKnee
        {
            OFFSET   0.000047 -41.789100  -0.000896
            CHANNELS 3 Zrotation Xrotation Yrotation
            JOINT RightAnkle
            {
                OFFSET  -0.000117 -41.133300  -0.000248
                CHANNELS 3 Zrotation Xrotation Yrotation
                JOINT RightToe
                {
                    OFFSET   0.000000  -6.358970  14.674500
                    CHANNELS 3 Zrotation Xrotation Yrotation
                    End Site
                    {
                        OFFSET   0.000000   0.000000   3.913200
                    }
                }
            }
        }
    }
}
MOTION
Frames: 5
Frame Time:   0.016667
  0.438833  89.621300  -1.339170  -1.237990  -5.182380   1.053690   1.096340   3.720730  -1.172840   2.276130   7.417460  -2.424620  -0.602889  -1.222600  -0.017969  -0.991777  -2.478310   7.156330  -6.993630   4.116900   0.854764 -68.050900  11.540500  -4.777680  -3.231800  -4.591860 -11.517800   6.538180  -5.352400   5.719180  42.039400  30.259900 -62.358600 -24.126300   0.000061   0.005954  -7.063180   0.003824   0.000000 -34.082700   5.008900  -7.352960 -28.149400   0.002996  -0.001884 -19.704600   0.003191   0.011844 -28.719500   0.773255  -1.411440 -39.482400   0.004293   0.000699 -26.302700  -0.000209  -0.003620 -28.274300  -3.780900   6.988630 -36.244100   0.004587   0.003008 -24.138600  -0.001260   0.005234 -30.259800  -4.022090   6.853120 -45.764200  -0.002443   0.006304 -30.472100   0.003938  -0.006159   6.746820   0.518620   7.803460  70.621300   6.472730  -0.509142  -0.179180  -1.525370  12.661400 -10.567900  -7.240500   3.744080 -38.800500  34.948100  68.508900  32.501900   0.007600  -0.013223  11.250900   0.004827  -0.007337  36.460700   6.142370   8.244720  30.193800  -0.003755  -0.013183  21.142100  -0.003204  -0.005678  28.494800   3.548810   6.517470  39.020700   0.000614  -0.001055  25.995300  -0.002533  -0.009503  28.630300   1.305490   2.388630  38.468100   0.000756  -0.001482  25.619700  -0.002690  -0.008251  35.288900   0.172743   0.234355  52.934000   0.000614  -0.004771  35.254000  -0.010902   0.004375   2.193900   6.869380   1.212680   1.559340   0.113842   3.109860  -4.637910  -2.044650  -0.132928  -0.000000   0.000000  -0.000000   0.467412   4.741650  -4.492480   0.715393   2.509360  -5.996170  -2.720150  -2.463290  -6.724150  -0.000000   0.000000   0.000000
  0.446585  89.621400  -1.324160  -1.236650  -5.175760   1.069610   1.095570   3.720650  -1.165520   2.273910   7.417480  -2.409900  -0.615150  -1.265960  -0.017965  -1.011930  -2.566110   7.207050  -6.992290   4.105150   0.840631 -68.058200  11.567600  -4.788400  -3.241960  -4.636190 -11.531500   6.509280  -5.361040   5.682020  42.039600  30.258000 -62.350100 -24.130300   0.000061   0.005965  -7.065180   0.003827  -0.000000 -34.097700   5.009500  -7.351390 -28.161600   0.002993  -0.001889 -19.713100   0.003189   0.011850 -28.719500   0.772668  -1.410370 -39.484400   0.004293   0.000702 -26.302500  -0.000209  -0.003621 -28.275600  -3.775380   6.978940 -36.225200   0.004588   0.003010 -24.126100  -0.001260   0.005228 -30.263300  -4.016490   6.843480 -45.764200  -0.002441   0.006317 -30.474000   0.003938  -0.006156   6.762220   0.513244   7.803330  70.636700   6.484630  -0.518905  -0.157989  -1.546290  12.628300 -10.548100  -7.225000   3.745410 -38.790800  34.968500  68.545500  32.519300   0.007608  -0.013224  11.259700   0.004832  -0.007332  36.463200   6.142170   8.238990  30.195800  -0.003759  -0.013184  21.141600  -0.003205  -0.005683  28.494500   3.551340   6.518160  39.026300   0.000624  -0.001047  25.995300  -0.002525  -0.009505  28.630300   1.305890   2.389360  38.480200   0.000764  -0.001477  25.627700  -0.002681  -0.008252  35.298200   0.172708   0.234356  52.947900   0.000623  -0.004769  35.263300  -0.010904   0.004379   2.188750   6.864660   1.207730   1.551010   0.113696   3.109860  -4.628480  -2.049470  -0.146278  -0.000000   0.000000   0.000000   0.461348   4.750000  -4.492430   0.709002   2.497240  -6.007020  -2.711470  -2.462240  -6.724150  -0.000000   0.000000   0.000000
  0.459560  89.621400  -1.299400  -1.234620  -5.166450   1.093790   1.092940   3.720490  -1.150740   2.267870   7.417510  -2.380070  -0.632838  -1.329920  -0.017954  -1.041220  -2.695710   7.258040  -6.990060   4.084760   0.815747 -68.078200  11.594500  -4.810900  -3.257290  -4.702710 -11.552600   6.479040  -5.369810   5.630670  42.038700  30.256100 -62.332400 -24.140300   0.000062   0.005984  -7.070130   0.003830   0.000000 -34.121300   5.010170  -7.344210 -28.180700   0.002988  -0.001899 -19.726500   0.003185   0.011865 -28.719600   0.769984  -1.405470 -39.488500   0.004294   0.000711 -26.302300  -0.000209  -0.003621 -28.276800  -3.769860   6.969240 -36.198100   0.004589   0.003014 -24.108000  -0.001260   0.005213 -30.270100  -4.010890   6.833830 -45.764400  -0.002435   0.006348 -30.479100   0.003937  -0.006148   6.789880   0.504020   7.803190  70.665700   6.504070  -0.536717  -0.121093  -1.579170  12.564700 -10.515000  -7.191700   3.750150 -38.795100  34.993500  68.590600  32.536800   0.007622  -0.013224  11.268400   0.004845  -0.007326  36.465600   6.141980   8.233260  30.197800  -0.003765  -0.013186  21.138400  -0.003207  -0.005694  28.493300   3.558730   6.522890  39.032000   0.000647  -0.001027  25.995300  -0.002501  -0.009511  28.630100   1.308700   2.394450  38.492200   0.000787  -0.001459  25.635800  -0.002656  -0.008256  35.310400   0.172637   0.234357  52.966100   0.000648  -0.004764  35.275400  -0.010909   0.004388   2.179430   6.859950   1.202780   1.537530   0.112674   3.109900  -4.612590  -2.054300  -0.167480  -0.000000   0.000000   0.000000   0.451152   4.766640  -4.492380   0.698495   2.477660  -6.023010  -2.696680  -2.461190  -6.724180   0.000000   0.000000  -0.000000
  0.469752  89.621400  -1.279870  -1.233460  -5.162300   1.107850   1.087580   3.720250  -1.132580   2.256140   7.417520  -2.343290  -0.641193  -1.364180  -0.017939  -1.056200  -2.765410   7.246780  -6.988070   4.068080   0.790555 -68.109900  11.586300  -4.839250  -3.262030  -4.738030 -11.565600   6.478520  -5.367940   5.612950  42.034200  30.258400 -62.304400 -24.154600   0.000063   0.006004  -7.077290   0.003818  -0.000000 -34.136300   5.002310  -7.327060 -28.192000   0.002981  -0.001914 -19.734400   0.003178   0.011886 -28.720000   0.763442  -1.393520 -39.491300   0.004294   0.000723 -26.302800  -0.000209  -0.003623 -28.276600  -3.770820   6.970140 -36.183800   0.004587   0.003017 -24.098400  -0.001263   0.005189 -30.277000  -4.015280   6.834020 -45.773100  -0.002426   0.006398 -30.486400   0.003933  -0.006133   6.816980   0.497660   7.803220  70.696800   6.517550  -0.555211  -0.087898  -1.598880  12.494900 -10.486400  -7.145390   3.759520 -38.811300  34.999100  68.600400  32.531800   0.007636  -0.013216  11.265900   0.004867  -0.007345  36.449900   6.143120   8.241340  30.185300  -0.003766  -0.013188  21.128300  -0.003214  -0.005709  28.490400   3.572180   6.545410  39.020300   0.000674  -0.000995  25.987500  -0.002456  -0.009526  28.629500   1.315490   2.406870  38.487900   0.000822  -0.001429  25.633000  -0.002616  -0.008265  35.313700   0.172542   0.233701  52.971100   0.000689  -0.004757  35.278700  -0.010920   0.004397   2.169310   6.877590   1.209820   1.528220   0.086307   3.110860  -4.598930  -2.046160  -0.182271  -0.000000   0.000000   0.000000   0.443145   4.782720  -4.492360   0.688982   2.465610  -6.031400  -2.684690  -2.465340  -6.728520  -0.000000   0.000000  -0.000000
  0.480625  89.621300  -1.261090  -1.232430  -5.160830   1.119830   1.081370   3.719990  -1.113130   2.242210   7.417510  -2.303860  -0.646307  -1.387360  -0.017918  -1.063490  -2.812530   7.223930  -6.986540   4.047820   0.768768 -68.148600  11.578000  -4.872520  -3.263050  -4.769320 -11.576200   6.483550  -5.365960   5.605730  42.030800  30.260600 -62.285600 -24.173700   0.000065   0.006024  -7.086850   0.003807   0.000000 -34.154000   4.991210  -7.307850 -28.205100   0.002971  -0.001933 -19.743600   0.003169   0.011914 -28.720300   0.756486  -1.380800 -39.499500   0.004293   0.000740 -26.306600  -0.000208  -0.003626 -28.276200  -3.772330   6.971040 -36.177800   0.004585   0.003021 -24.094400  -0.001266   0.005158 -30.287600  -4.021380   6.834230 -45.792500  -0.002414   0.006462 -30.497800   0.003927  -0.006113   6.844910   0.487829   7.803430  70.730000   6.533190  -0.573533  -0.053415  -1.620970  12.417600 -10.461000  -7.098150   3.771420 -38.813500  35.000200  68.601600  32.523900   0.007656  -0.013209  11.262000   0.004896  -0.007364  36.423400   6.147230   8.257140  30.164400  -0.003769  -0.013191  21.115100  -0.003222  -0.005728  28.486700   3.587560   6.576600  38.997800   0.000711  -0.000955  25.972500  -0.002399  -0.009544  28.628700   1.325660   2.425580  38.476500   0.000867  -0.001390  25.625400  -0.002565  -0.008278  35.314200   0.172457   0.233046  52.971800   0.000742  -0.004747  35.279200  -0.010934   0.004409   2.159610   6.895240   1.216870   1.520630   0.060815   3.111790  -4.586120  -2.038010  -0.195734   0.000000   0.000000  -0.000000   0.434350   4.807910  -4.492470   0.682512   2.449790  -6.037310  -2.673080  -2.473590  -6.735760  -0.000000   0.000000   0.000000
